PathFileType	4	(X/Y/Z)	 2.8Hzlow3min.trc
DataRate	CameraRate	NumFrames	NumMarkers	Units	OrigDataRate	OrigDataStartFrame	OrigNumFrames
200	200	9	35	m	200	876	1000
Frame#	Time	C7			LSH			RSH			MAN			RASI			LASI			HIPR			HIPL			RPSI			LPSI			COX			RTHI1			RTHI2			RTHI3			RTHI4			RSHA1			RSHA2			RSHA3			RSHA4			RHEEL			RMET5			RMET1			RTOE			LTHI1			LTHI2			LTHI3			LTHI4			LSHA1			LSHA2			LSHA3			LSHA4			LHEEL			LMET5			LMET1			LTOE			
		X1	Y1	Z1	X2	Y2	Z2	X3	Y3	Z3	X4	Y4	Z4	X5	Y5	Z5	X6	Y6	Z6	X7	Y7	Z7	X8	Y8	Z8	X9	Y9	Z9	X10	Y10	Z10	X11	Y11	Z11	X12	Y12	Z12	X13	Y13	Z13	X14	Y14	Z14	X15	Y15	Z15	X16	Y16	Z16	X17	Y17	Z17	X18	Y18	Z18	X19	Y19	Z19	X20	Y20	Z20	X21	Y21	Z21	X22	Y22	Z22	X23	Y23	Z23	X24	Y24	Z24	X25	Y25	Z25	X26	Y26	Z26	X27	Y27	Z27	X28	Y28	Z28	X29	Y29	Z29	X30	Y30	Z30	X31	Y31	Z31	X32	Y32	Z32	X33	Y33	Z33	X34	Y34	Z34	X35	Y35	Z35	
876	4.3800	-0.296580	1.413913	-0.563278	-0.254207	1.386051	-0.736308	-0.267360	1.390686	-0.389725	-0.183113	1.375384	-0.561244	-0.151762	0.985340	-0.472042	-0.134485	0.993444	-0.648546	-0.219243	1.030239	-0.431715	-0.198898	1.037610	-0.692638	-0.290929	1.016346	-0.508944	-0.283535	1.018702	-0.619033	-0.293377	1.029398	-0.566950	-0.244082	0.811648	-0.398530	-0.231669	0.753352	-0.391030	-0.167862	0.762086	-0.397914	-0.171969	0.822916	-0.405797	-0.268745	0.372679	-0.371723	-0.288629	0.334224	-0.371900	-0.234109	0.313476	-0.389507	-0.219633	0.351342	-0.392215	-0.379090	0.135704	-0.430308	-0.250515	0.045865	-0.367349	-0.217651	0.044020	-0.433066	-0.196593	0.033853	-0.423623	-0.204799	0.784197	-0.743737	-0.189755	0.724473	-0.742842	-0.129816	0.733697	-0.719176	-0.137440	0.792933	-0.718294	-0.282949	0.350956	-0.753709	-0.298910	0.313808	-0.751745	-0.238677	0.295482	-0.751009	-0.230304	0.338694	-0.753712	-0.358395	0.143034	-0.706784	-0.230209	0.047576	-0.764383	-0.200219	0.044941	-0.699527	-0.180548	0.035928	-0.707704	
877	4.3850	-0.296103	1.411658	-0.563399	-0.253325	1.383531	-0.736551	-0.266977	1.388136	-0.389666	-0.182701	1.372976	-0.561252	-0.152110	0.982977	-0.472012	-0.134792	0.991164	-0.648583	-0.219719	1.027732	-0.431774	-0.199265	1.035242	-0.692645	-0.291376	1.013668	-0.509026	-0.283912	1.016149	-0.619102	-0.293737	1.026806	-0.567012	-0.243579	0.809001	-0.398283	-0.230899	0.750773	-0.390945	-0.167166	0.759731	-0.398323	-0.171529	0.820557	-0.406088	-0.267999	0.370527	-0.372293	-0.288096	0.332116	-0.372458	-0.233744	0.311082	-0.390203	-0.219029	0.348890	-0.392771	-0.379819	0.133813	-0.431120	-0.251015	0.044748	-0.367706	-0.218079	0.042677	-0.433393	-0.196962	0.032637	-0.423967	-0.204394	0.781963	-0.743744	-0.189208	0.722272	-0.742812	-0.129367	0.731636	-0.718973	-0.137132	0.790858	-0.718096	-0.281979	0.348769	-0.753599	-0.298064	0.311669	-0.751630	-0.237892	0.293169	-0.750671	-0.229371	0.336359	-0.753419	-0.358191	0.141178	-0.706560	-0.230144	0.044985	-0.763331	-0.200278	0.042746	-0.698226	-0.180569	0.033657	-0.706223	
878	4.3900	-0.295628	1.409163	-0.563513	-0.252417	1.380769	-0.736795	-0.266566	1.385336	-0.389599	-0.182291	1.370315	-0.561253	-0.152451	0.980361	-0.471965	-0.135103	0.988640	-0.648601	-0.220204	1.024978	-0.431831	-0.199619	1.032642	-0.692649	-0.291820	1.010754	-0.509116	-0.284282	1.013355	-0.619178	-0.294100	1.023970	-0.567081	-0.243035	0.806113	-0.398029	-0.230109	0.747939	-0.390861	-0.166447	0.757123	-0.398746	-0.171042	0.817944	-0.406352	-0.267256	0.368144	-0.372884	-0.287570	0.329781	-0.373016	-0.233386	0.308451	-0.390889	-0.218432	0.346195	-0.393335	-0.380565	0.131718	-0.431978	-0.251598	0.043348	-0.368116	-0.218561	0.041122	-0.433899	-0.197371	0.031247	-0.424558	-0.203997	0.779457	-0.743740	-0.188644	0.719803	-0.742798	-0.128902	0.729324	-0.718823	-0.136818	0.788528	-0.717935	-0.280971	0.346367	-0.753508	-0.297186	0.309308	-0.751538	-0.237083	0.290629	-0.750299	-0.228407	0.333780	-0.753102	-0.358098	0.139146	-0.706241	-0.230258	0.042181	-0.762325	-0.200358	0.040463	-0.696727	-0.180550	0.031339	-0.704503	
879	4.3950	-0.295168	1.406417	-0.563620	-0.251490	1.377767	-0.737036	-0.266125	1.382295	-0.389526	-0.181888	1.367403	-0.561248	-0.152782	0.977486	-0.471901	-0.135413	0.985865	-0.648604	-0.220690	1.021980	-0.431889	-0.199955	1.029808	-0.692647	-0.292267	1.007602	-0.509211	-0.284649	1.010316	-0.619258	-0.294462	1.020893	-0.567160	-0.242458	0.802981	-0.397777	-0.229297	0.744857	-0.390785	-0.165712	0.754257	-0.399186	-0.170509	0.815080	-0.406599	-0.266511	0.365516	-0.373451	-0.287053	0.327216	-0.373564	-0.233037	0.305588	-0.391558	-0.217842	0.343250	-0.393912	-0.381347	0.129427	-0.432927	-0.252254	0.041750	-0.368514	-0.219033	0.039475	-0.434601	-0.197727	0.029799	-0.425400	-0.203606	0.776666	-0.743734	-0.188058	0.717055	-0.742801	-0.128411	0.726752	-0.718726	-0.136502	0.785928	-0.717812	-0.279936	0.343747	-0.753445	-0.296291	0.306738	-0.751479	-0.236264	0.287845	-0.749903	-0.227422	0.330966	-0.752768	-0.358215	0.136900	-0.705821	-0.230528	0.039379	-0.761524	-0.200363	0.038283	-0.695216	-0.180417	0.029152	-0.702709	
880	4.4000	-0.294730	1.403419	-0.563717	-0.250554	1.374532	-0.737269	-0.265658	1.379020	-0.389447	-0.181490	1.364237	-0.561237	-0.153103	0.974354	-0.471827	-0.135721	0.982843	-0.648596	-0.221166	1.018732	-0.431946	-0.200271	1.026733	-0.692638	-0.292713	1.004225	-0.509307	-0.285011	1.007055	-0.619347	-0.294824	1.017589	-0.567248	-0.241863	0.799612	-0.397540	-0.228475	0.741529	-0.390731	-0.164973	0.751132	-0.399637	-0.169966	0.811963	-0.406853	-0.265763	0.362650	-0.373980	-0.286553	0.324417	-0.374108	-0.232705	0.302489	-0.392212	-0.217273	0.340066	-0.394491	-0.382220	0.126931	-0.434015	-0.252941	0.040082	-0.368843	-0.219416	0.037873	-0.435429	-0.197953	0.028431	-0.426430	-0.203219	0.773578	-0.743733	-0.187448	0.714026	-0.742821	-0.127889	0.723918	-0.718671	-0.136182	0.783061	-0.717729	-0.278890	0.340928	-0.753418	-0.295403	0.303964	-0.751454	-0.235471	0.284821	-0.749487	-0.226436	0.327906	-0.752414	-0.358642	0.134426	-0.705288	-0.230889	0.036796	-0.761034	-0.200262	0.036383	-0.693853	-0.180137	0.027294	-0.700968	
881	4.4050	-0.294317	1.400160	-0.563814	-0.249621	1.371068	-0.737489	-0.265165	1.375525	-0.389364	-0.181099	1.360830	-0.561219	-0.153412	0.970974	-0.471743	-0.136031	0.979576	-0.648582	-0.221627	1.015248	-0.432000	-0.200565	1.023435	-0.692627	-0.293160	1.000630	-0.509403	-0.285374	1.003576	-0.619449	-0.295177	1.014053	-0.567326	-0.241265	0.795995	-0.397337	-0.227653	0.737958	-0.390728	-0.164238	0.747757	-0.400112	-0.169434	0.808599	-0.407128	-0.265029	0.359540	-0.374477	-0.286072	0.321399	-0.374629	-0.232401	0.299157	-0.392849	-0.216730	0.336637	-0.395066	-0.383253	0.124290	-0.435063	-0.253626	0.038464	-0.369051	-0.219663	0.036452	-0.436299	-0.197998	0.027272	-0.427578	-0.202830	0.770193	-0.743748	-0.186818	0.710711	-0.742856	-0.127350	0.720823	-0.718649	-0.135862	0.779922	-0.717685	-0.277875	0.337911	-0.753415	-0.294573	0.301016	-0.751455	-0.234754	0.281564	-0.749031	-0.225489	0.324597	-0.752033	-0.359481	0.131729	-0.704650	-0.231306	0.034616	-0.760935	-0.200073	0.034934	-0.692741	-0.179713	0.025939	-0.699420	
882	4.4100	-0.293925	1.396641	-0.563916	-0.248710	1.367386	-0.737689	-0.264652	1.371828	-0.389279	-0.180710	1.357185	-0.561199	-0.153713	0.967351	-0.471650	-0.136345	0.976078	-0.648568	-0.222073	1.011529	-0.432045	-0.200843	1.019913	-0.692616	-0.293611	0.996823	-0.509493	-0.285745	0.999881	-0.619552	-0.295536	1.010294	-0.567406	-0.240669	0.792136	-0.397179	-0.226835	0.734143	-0.390779	-0.163514	0.744135	-0.400605	-0.168920	0.804985	-0.407435	-0.264325	0.356183	-0.374942	-0.285631	0.318179	-0.375130	-0.232145	0.295599	-0.393475	-0.216227	0.332973	-0.395634	-0.384436	0.121541	-0.435900	-0.254313	0.037012	-0.369083	-0.219775	0.035317	-0.437130	-0.197837	0.026380	-0.428665	-0.202441	0.766515	-0.743787	-0.186167	0.707108	-0.742906	-0.126787	0.717468	-0.718656	-0.135543	0.776522	-0.717677	-0.276928	0.334740	-0.753416	-0.293863	0.297929	-0.751467	-0.234188	0.278096	-0.748524	-0.224631	0.321055	-0.751616	-0.360798	0.128864	-0.703933	-0.231793	0.032993	-0.761274	-0.199862	0.033986	-0.692107	-0.179254	0.025044	-0.698396	
883	4.4150	-0.293559	1.392872	-0.564024	-0.247832	1.363499	-0.737866	-0.264126	1.367947	-0.389193	-0.180316	1.353315	-0.561177	-0.154001	0.963507	-0.471557	-0.136670	0.972364	-0.648560	-0.222508	1.007572	-0.432073	-0.201092	1.016176	-0.692616	-0.294069	0.992806	-0.509574	-0.286125	0.995978	-0.619663	-0.295909	1.006326	-0.567481	-0.240091	0.788044	-0.397071	-0.226032	0.730098	-0.390880	-0.162818	0.740268	-0.401113	-0.168438	0.801133	-0.407775	-0.263674	0.352603	-0.375374	-0.285261	0.314754	-0.375635	-0.231965	0.291835	-0.394095	-0.215785	0.329079	-0.396184	-0.385896	0.118707	-0.436681	-0.255024	0.035811	-0.368942	-0.219790	0.034498	-0.437785	-0.197553	0.025750	-0.429503	-0.202053	0.762551	-0.743853	-0.185499	0.703224	-0.742970	-0.126197	0.713857	-0.718688	-0.135222	0.772865	-0.717700	-0.276101	0.331437	-0.753377	-0.293337	0.294768	-0.751421	-0.233849	0.274432	-0.747957	-0.223921	0.317318	-0.751154	-0.362559	0.125906	-0.703227	-0.232344	0.031937	-0.761893	-0.199760	0.033461	-0.692026	-0.178958	0.024539	-0.697992	
884	4.4200	-0.293214	1.388866	-0.564133	-0.247005	1.359421	-0.738017	-0.263595	1.363908	-0.389112	-0.179901	1.349225	-0.561159	-0.154278	0.959466	-0.471474	-0.137013	0.968456	-0.648570	-0.222942	1.003386	-0.432081	-0.201327	1.012243	-0.692638	-0.294531	0.988589	-0.509641	-0.286518	0.991881	-0.619782	-0.296280	1.002152	-0.567536	-0.239549	0.783722	-0.396996	-0.225265	0.725806	-0.391032	-0.162161	0.736178	-0.401622	-0.168008	0.797048	-0.408143	-0.263098	0.348835	-0.375807	-0.284979	0.311162	-0.376161	-0.231882	0.287885	-0.394727	-0.215419	0.324988	-0.396727	-0.387673	0.115810	-0.437372	-0.255784	0.034841	-0.368699	-0.219810	0.033949	-0.438195	-0.197286	0.025347	-0.430021	-0.201670	0.758317	-0.743940	-0.184820	0.699077	-0.743049	-0.125591	0.710005	-0.718746	-0.134901	0.768968	-0.717760	-0.275441	0.328080	-0.753245	-0.293058	0.291597	-0.751267	-0.233796	0.270643	-0.747330	-0.223416	0.313426	-0.750645	-0.364665	0.122960	-0.702608	-0.232993	0.031270	-0.762587	-0.199928	0.033207	-0.692235	-0.178939	0.024302	-0.697997	
